<svg width="135.12" height="28.241" viewBox="0 0 135.12 28.241" xmlns="http://www.w3.org/2000/svg"><g id="svgGroup" stroke-linecap="round" fill-rule="evenodd" font-size="9pt" stroke="#ffffff" stroke-width="0.50mm" fill="#ffffff" style="stroke:#ffffff;stroke-width:0.50mm;fill:#ffffff"><path d="M 110.96 18.68 L 92.92 18.68 L 92.92 15.92 L 108.96 15.92 L 107.4 16.88 Q 107.424 15.664 107.12 14.603 A 6.57 6.57 0 0 0 106.56 13.24 Q 105.68 11.64 104.14 10.74 A 6.563 6.563 0 0 0 101.668 9.912 A 8.383 8.383 0 0 0 100.56 9.84 A 7.581 7.581 0 0 0 98.463 10.121 A 6.498 6.498 0 0 0 97 10.74 Q 95.44 11.64 94.56 13.26 Q 93.68 14.88 93.68 16.96 L 93.68 17.6 A 7.83 7.83 0 0 0 94.003 19.883 A 6.835 6.835 0 0 0 94.66 21.38 Q 95.64 23.04 97.4 23.96 Q 99.16 24.88 101.44 24.88 A 9.561 9.561 0 0 0 103.526 24.661 A 8.016 8.016 0 0 0 104.86 24.24 Q 106.4 23.6 107.56 22.32 L 109.68 24.8 Q 108.24 26.48 106.1 27.36 A 11.702 11.702 0 0 1 102.921 28.154 A 14.546 14.546 0 0 1 101.32 28.24 A 13.99 13.99 0 0 1 98.128 27.891 A 11.128 11.128 0 0 1 95.34 26.84 Q 92.76 25.44 91.34 23 A 10.494 10.494 0 0 1 89.988 18.751 A 13.093 13.093 0 0 1 89.92 17.4 A 12.32 12.32 0 0 1 90.309 14.246 A 10.268 10.268 0 0 1 91.3 11.8 Q 92.68 9.36 95.1 7.98 Q 97.52 6.6 100.56 6.6 A 11.849 11.849 0 0 1 103.587 6.973 A 9.815 9.815 0 0 1 106 7.96 Q 108.36 9.32 109.7 11.78 A 10.877 10.877 0 0 1 110.882 15.362 A 14.204 14.204 0 0 1 111.04 17.52 A 6.906 6.906 0 0 1 111.037 17.712 Q 111.035 17.796 111.031 17.888 A 12.164 12.164 0 0 1 111.02 18.08 A 8.163 8.163 0 0 1 110.987 18.465 A 6.759 6.759 0 0 1 110.96 18.68 Z M 4.12 28 L 0 28 L 12.68 0 L 16.64 0 L 29.36 28 L 25.16 28 L 13.84 2.24 L 15.44 2.24 L 4.12 28 Z M 44.24 28 L 40.28 28 L 40.28 17.28 L 41.2 19.76 L 29.16 0 L 33.44 0 L 43.56 16.68 L 41.24 16.68 L 51.4 0 L 55.36 0 L 43.36 19.76 L 44.24 17.28 L 44.24 28 Z M 125.84 28 L 121.92 28 L 112.64 6.8 L 116.64 6.8 L 124.88 26 L 122.96 26 L 131.36 6.8 L 135.12 6.8 L 125.84 28 Z M 71.2 28 L 59.4 28 L 59.4 0 L 71.2 0 Q 75.68 0 79.1 1.76 Q 82.52 3.52 84.42 6.68 A 13.267 13.267 0 0 1 86.201 11.983 A 16.722 16.722 0 0 1 86.32 14 A 15.449 15.449 0 0 1 85.815 18.024 A 12.82 12.82 0 0 1 84.42 21.32 Q 82.52 24.48 79.1 26.24 A 15.722 15.722 0 0 1 74.155 27.792 A 20.306 20.306 0 0 1 71.2 28 Z M 63.4 3.48 L 63.4 24.52 L 70.96 24.52 A 15.485 15.485 0 0 0 73.825 24.268 A 11.353 11.353 0 0 0 76.98 23.2 Q 79.52 21.88 80.92 19.5 A 10.135 10.135 0 0 0 82.232 15.514 A 12.778 12.778 0 0 0 82.32 14 A 12.038 12.038 0 0 0 81.981 11.083 A 9.636 9.636 0 0 0 80.92 8.48 Q 79.52 6.12 76.98 4.8 A 11.421 11.421 0 0 0 73.681 3.707 A 15.62 15.62 0 0 0 70.96 3.48 L 63.4 3.48 Z M 23.4 21 L 5.4 21 L 6.48 17.8 L 22.24 17.8 L 23.4 21 Z" vector-effect="non-scaling-stroke"/></g></svg>