<svg width="372.5" height="37.351" viewBox="0 0 372.5 37.351" xmlns="http://www.w3.org/2000/svg"><g id="svgGroup" stroke-linecap="round" fill-rule="evenodd" font-size="9pt" stroke="#000" stroke-width="0.25mm" fill="#ffffff" style="stroke:#000;stroke-width:0.25mm;fill:#ffffff"><path d="M 190.55 27.65 L 190.55 10.75 L 195.05 10.75 L 195.05 27.05 A 11.491 11.491 0 0 0 195.177 28.817 Q 195.321 29.741 195.628 30.485 A 5.068 5.068 0 0 0 196.35 31.725 A 4.202 4.202 0 0 0 198.907 33.236 A 6.403 6.403 0 0 0 200.15 33.35 Q 202.2 33.35 204.125 32.525 Q 206.05 31.7 207.55 30.3 L 207.55 10.75 L 212.05 10.75 L 212.05 30 A 7.801 7.801 0 0 0 212.101 30.927 Q 212.267 32.309 212.975 32.825 Q 213.9 33.5 215 33.5 L 214.05 37 Q 209.4 37 208.3 33.3 Q 206.55 35.1 204.25 36.225 Q 201.95 37.35 199.3 37.35 Q 197.05 37.35 195.05 36.4 A 7.22 7.22 0 0 1 192.295 34.081 A 9.133 9.133 0 0 1 191.8 33.325 A 8.12 8.12 0 0 1 190.968 31.279 Q 190.707 30.294 190.609 29.123 A 17.686 17.686 0 0 1 190.55 27.65 Z M 302.4 27.65 L 302.4 10.75 L 306.9 10.75 L 306.9 27.05 A 11.491 11.491 0 0 0 307.027 28.817 Q 307.171 29.741 307.478 30.485 A 5.068 5.068 0 0 0 308.2 31.725 A 4.202 4.202 0 0 0 310.757 33.236 A 6.403 6.403 0 0 0 312 33.35 Q 314.05 33.35 315.975 32.525 Q 317.9 31.7 319.4 30.3 L 319.4 10.75 L 323.9 10.75 L 323.9 30 A 7.801 7.801 0 0 0 323.951 30.927 Q 324.117 32.309 324.825 32.825 Q 325.75 33.5 326.85 33.5 L 325.9 37 Q 321.25 37 320.15 33.3 Q 318.4 35.1 316.1 36.225 Q 313.8 37.35 311.15 37.35 Q 308.9 37.35 306.9 36.4 A 7.22 7.22 0 0 1 304.145 34.081 A 9.133 9.133 0 0 1 303.65 33.325 A 8.12 8.12 0 0 1 302.818 31.279 Q 302.557 30.294 302.459 29.123 A 17.686 17.686 0 0 1 302.4 27.65 Z M 245.45 36.75 L 240.95 36.75 L 240.95 10.75 L 245.3 10.75 L 245.3 15.1 Q 246.7 13 248.875 11.575 A 8.658 8.658 0 0 1 252.428 10.263 A 11.315 11.315 0 0 1 254.05 10.15 A 11.612 11.612 0 0 1 256.583 10.409 Q 259.13 10.978 260.625 12.8 Q 262.8 15.45 262.8 19.8 L 262.8 36.75 L 258.3 36.75 L 258.3 20.3 A 9.632 9.632 0 0 0 258.129 18.43 Q 257.824 16.889 256.975 15.8 A 4.29 4.29 0 0 0 253.837 14.124 A 6.031 6.031 0 0 0 253.3 14.1 A 6.561 6.561 0 0 0 249.875 15.082 A 8.677 8.677 0 0 0 248.95 15.725 Q 246.9 17.35 245.45 19.55 L 245.45 36.75 Z M 171.55 36.75 L 166.8 36.75 L 166.8 1.75 L 187.55 1.75 L 187.55 5.85 L 171.55 5.85 L 171.55 16.55 L 184.9 16.55 L 184.9 20.45 L 171.55 20.45 L 171.55 36.75 Z M 46.8 36.75 L 42.05 36.75 L 42.05 23.45 L 29.9 3.7 L 33.9 1.3 L 44.6 19.05 L 55.1 1.5 L 58.85 3.7 L 46.8 23.45 L 46.8 36.75 Z M 32.4 35.5 L 28.05 37.25 L 24.15 27.25 L 7.95 27.25 L 4.05 37.15 L 0 35.5 L 13.7 1.75 L 18.9 1.75 L 32.4 35.5 Z M 118.5 25.6 L 100.3 25.6 A 12.044 12.044 0 0 0 100.87 28.113 Q 101.464 29.811 102.571 31.013 A 7.49 7.49 0 0 0 102.85 31.3 A 7.072 7.072 0 0 0 106.662 33.206 A 10.011 10.011 0 0 0 108.4 33.35 A 18.365 18.365 0 0 0 110.537 33.232 A 13.788 13.788 0 0 0 112.45 32.875 Q 114.25 32.4 115.9 31.65 L 116.95 35.5 A 20.385 20.385 0 0 1 114.783 36.313 A 25.932 25.932 0 0 1 112.9 36.825 A 19.457 19.457 0 0 1 110.354 37.235 A 26.013 26.013 0 0 1 107.85 37.35 A 14.159 14.159 0 0 1 103.977 36.848 A 10.554 10.554 0 0 1 98.975 33.775 Q 96.071 30.605 95.742 25.175 A 23.562 23.562 0 0 1 95.7 23.75 A 17.679 17.679 0 0 1 96.116 19.839 A 14.42 14.42 0 0 1 97.175 16.775 A 12.321 12.321 0 0 1 99.683 13.234 A 11.444 11.444 0 0 1 101.3 11.925 A 10.524 10.524 0 0 1 106.43 10.189 A 13.103 13.103 0 0 1 107.45 10.15 A 14.277 14.277 0 0 1 110.185 10.398 Q 111.857 10.725 113.192 11.481 A 8.606 8.606 0 0 1 113.675 11.775 Q 116.15 13.4 117.4 16.15 A 14.093 14.093 0 0 1 118.613 21.082 A 16.717 16.717 0 0 1 118.65 22.2 A 37.602 37.602 0 0 1 118.505 25.549 A 34.535 34.535 0 0 1 118.5 25.6 Z M 372.35 25.6 L 354.15 25.6 A 12.044 12.044 0 0 0 354.72 28.113 Q 355.314 29.811 356.421 31.013 A 7.49 7.49 0 0 0 356.7 31.3 A 7.072 7.072 0 0 0 360.512 33.206 A 10.011 10.011 0 0 0 362.25 33.35 A 18.365 18.365 0 0 0 364.387 33.232 A 13.788 13.788 0 0 0 366.3 32.875 Q 368.1 32.4 369.75 31.65 L 370.8 35.5 A 20.385 20.385 0 0 1 368.633 36.313 A 25.932 25.932 0 0 1 366.75 36.825 A 19.457 19.457 0 0 1 364.204 37.235 A 26.013 26.013 0 0 1 361.7 37.35 A 14.159 14.159 0 0 1 357.827 36.848 A 10.554 10.554 0 0 1 352.825 33.775 Q 349.921 30.605 349.592 25.175 A 23.562 23.562 0 0 1 349.55 23.75 A 17.679 17.679 0 0 1 349.966 19.839 A 14.42 14.42 0 0 1 351.025 16.775 A 12.321 12.321 0 0 1 353.533 13.234 A 11.444 11.444 0 0 1 355.15 11.925 A 10.524 10.524 0 0 1 360.28 10.189 A 13.103 13.103 0 0 1 361.3 10.15 A 14.277 14.277 0 0 1 364.035 10.398 Q 365.707 10.725 367.042 11.481 A 8.606 8.606 0 0 1 367.525 11.775 Q 370 13.4 371.25 16.15 A 14.093 14.093 0 0 1 372.463 21.082 A 16.717 16.717 0 0 1 372.5 22.2 A 37.602 37.602 0 0 1 372.355 25.549 A 34.535 34.535 0 0 1 372.35 25.6 Z M 136.3 36.75 L 131.6 36.75 L 121.15 11.95 L 125.25 10.25 L 134.1 31.65 L 142.95 10.25 L 146.8 11.95 L 136.3 36.75 Z M 284.05 27.8 L 284.05 15.6 L 279.55 15.6 L 279.55 11.7 L 284.15 11.7 L 285.1 3.5 L 288.55 3.5 L 288.55 11.7 L 295.75 11.7 L 295.75 15.6 L 288.55 15.6 L 288.55 28.15 A 10.779 10.779 0 0 0 288.634 29.548 Q 288.871 31.351 289.775 32.2 Q 291 33.35 292.7 33.35 Q 293.95 33.35 295.075 32.95 A 12.866 12.866 0 0 0 296.664 32.266 A 11.384 11.384 0 0 0 297.15 32 L 298.4 35.6 A 9.273 9.273 0 0 1 297.591 36.028 Q 296.789 36.407 295.7 36.775 Q 294 37.35 292.15 37.35 A 9.163 9.163 0 0 1 289.559 37.002 A 6.967 6.967 0 0 1 286.225 34.875 Q 284.05 32.4 284.05 27.8 Z M 63.85 36.65 L 63.85 1.85 Q 66.2 1.6 68.45 1.475 Q 70.384 1.368 72.797 1.353 A 128.288 128.288 0 0 1 73.6 1.35 Q 77.781 1.35 80.905 2.559 A 14.6 14.6 0 0 1 81.375 2.75 A 15.489 15.489 0 0 1 85.02 4.91 A 13.612 13.612 0 0 1 86.775 6.6 Q 88.9 9.05 89.925 12.275 A 22.128 22.128 0 0 1 90.911 17.773 A 25.753 25.753 0 0 1 90.95 19.2 A 22.654 22.654 0 0 1 90.209 25.049 A 20.901 20.901 0 0 1 89.9 26.1 Q 88.85 29.35 86.675 31.825 A 14.484 14.484 0 0 1 82.547 35.05 A 17.628 17.628 0 0 1 81.125 35.725 A 17.178 17.178 0 0 1 77.419 36.794 Q 75.4 37.15 73.05 37.15 Q 70.2 37.15 68.075 37 Q 65.95 36.85 63.85 36.65 Z M 225.5 36.75 L 221 36.75 L 221 10.75 L 225.35 10.75 L 225.35 16.4 Q 226 14.75 227.1 13.325 Q 228.2 11.9 229.85 11.025 Q 231.5 10.15 233.7 10.15 Q 234.45 10.15 235.2 10.225 A 9.486 9.486 0 0 1 235.727 10.292 Q 235.977 10.331 236.191 10.382 A 4.408 4.408 0 0 1 236.45 10.45 L 235.1 15.1 A 4.881 4.881 0 0 0 234.027 14.794 Q 233.48 14.7 232.85 14.7 A 6.479 6.479 0 0 0 229.535 15.623 A 7.804 7.804 0 0 0 229.325 15.75 A 6.701 6.701 0 0 0 227.589 17.349 Q 227.037 18.061 226.589 18.971 A 11.373 11.373 0 0 0 226.575 19 Q 225.694 20.804 225.535 23.414 A 19.545 19.545 0 0 0 225.5 24.6 L 225.5 36.75 Z M 337.35 36.75 L 332.85 36.75 L 332.85 10.75 L 337.2 10.75 L 337.2 16.4 Q 337.85 14.75 338.95 13.325 Q 340.05 11.9 341.7 11.025 Q 343.35 10.15 345.55 10.15 Q 346.3 10.15 347.05 10.225 A 9.486 9.486 0 0 1 347.577 10.292 Q 347.827 10.331 348.041 10.382 A 4.408 4.408 0 0 1 348.3 10.45 L 346.95 15.1 A 4.881 4.881 0 0 0 345.877 14.794 Q 345.33 14.7 344.7 14.7 A 6.479 6.479 0 0 0 341.385 15.623 A 7.804 7.804 0 0 0 341.175 15.75 A 6.701 6.701 0 0 0 339.439 17.349 Q 338.887 18.061 338.439 18.971 A 11.373 11.373 0 0 0 338.425 19 Q 337.544 20.804 337.385 23.414 A 19.545 19.545 0 0 0 337.35 24.6 L 337.35 36.75 Z M 68.6 5.7 L 68.6 32.75 A 21.783 21.783 0 0 0 70.231 32.919 A 24.642 24.642 0 0 0 70.8 32.95 Q 71.95 33 73.2 33 Q 77.7 33 80.55 31.25 Q 83.4 29.5 84.75 26.375 A 16.146 16.146 0 0 0 85.877 22.338 A 21.251 21.251 0 0 0 86.1 19.2 Q 86.1 15.6 84.75 12.45 Q 83.4 9.3 80.6 7.375 A 10.447 10.447 0 0 0 77.074 5.846 Q 75.654 5.506 73.998 5.458 A 19.004 19.004 0 0 0 73.45 5.45 A 49.115 49.115 0 0 0 72.063 5.469 A 37.098 37.098 0 0 0 70.8 5.525 Q 69.6 5.6 68.6 5.7 Z M 275.05 36.75 L 270.55 36.75 L 270.55 10.75 L 275.05 10.75 L 275.05 36.75 Z M 16.05 6.45 L 9.45 23.25 L 22.6 23.25 L 16.05 6.45 Z M 100.25 21.95 L 114.5 21.95 Q 114.5 18.15 112.6 16.1 A 6.244 6.244 0 0 0 109.12 14.212 A 9.198 9.198 0 0 0 107.35 14.05 A 6.79 6.79 0 0 0 104.794 14.518 A 6.262 6.262 0 0 0 102.55 16.075 Q 100.969 17.761 100.426 20.711 A 16.01 16.01 0 0 0 100.25 21.95 Z M 354.1 21.95 L 368.35 21.95 Q 368.35 18.15 366.45 16.1 A 6.244 6.244 0 0 0 362.97 14.212 A 9.198 9.198 0 0 0 361.2 14.05 A 6.79 6.79 0 0 0 358.644 14.518 A 6.262 6.262 0 0 0 356.4 16.075 Q 354.819 17.761 354.276 20.711 A 16.01 16.01 0 0 0 354.1 21.95 Z M 272.8 6.3 Q 271.5 6.3 270.575 5.35 A 3.322 3.322 0 0 1 269.896 4.36 A 2.996 2.996 0 0 1 269.65 3.15 A 3.994 3.994 0 0 1 269.765 2.166 A 2.794 2.794 0 0 1 270.5 0.85 A 2.831 2.831 0 0 1 271.972 0.079 A 4.132 4.132 0 0 1 272.8 0 A 3.029 3.029 0 0 1 274.996 0.897 A 3.7 3.7 0 0 1 275.025 0.925 A 3.03 3.03 0 0 1 275.95 3.11 A 3.627 3.627 0 0 1 275.95 3.15 Q 275.95 4.55 275.1 5.425 A 2.824 2.824 0 0 1 273.548 6.235 A 4.088 4.088 0 0 1 272.8 6.3 Z" vector-effect="non-scaling-stroke"/></g></svg>